<svg width="56" height="23" viewBox="0 0 56 23" fill="none" xmlns="http://www.w3.org/2000/svg">
<path d="M11.2479 4.82739C9.91143 4.82739 8.83331 5.63599 8.13702 5.63599C7.40704 5.63599 6.42999 4.87231 5.27325 4.87231C3.07207 4.87231 0.837212 6.70288 0.837212 10.1282C0.837212 12.2732 1.66827 14.5305 2.69024 16.0017C3.55499 17.2258 4.32989 18.2366 5.43047 18.2366C6.51983 18.2366 7.00274 17.5178 8.36163 17.5178C9.73174 17.5178 10.0462 18.2141 11.2479 18.2141C12.4495 18.2141 13.2469 17.1248 13.9993 16.0466C14.8304 14.8 15.1898 13.5872 15.201 13.531C15.1336 13.5085 12.8426 12.5764 12.8426 9.94849C12.8426 7.67993 14.6395 6.66919 14.7405 6.59058C13.5613 4.87231 11.7532 4.82739 11.2479 4.82739ZM10.6302 3.37866C11.1692 2.71606 11.5511 1.81763 11.5511 0.907959C11.5511 0.784424 11.5398 0.660889 11.5174 0.559814C10.6414 0.593506 9.56329 1.1438 8.92315 1.89624C8.42901 2.46899 7.95733 3.37866 7.95733 4.28833C7.95733 4.4231 7.97979 4.56909 7.99102 4.61401C8.04717 4.62524 8.13702 4.63647 8.22686 4.63647C9.02422 4.63647 10.035 4.09741 10.6302 3.37866ZM19.6155 1.82886V18.0344H22.513V12.7224H26.0281C29.3074 12.7224 31.5984 10.5212 31.5984 7.30933C31.5984 4.04126 29.386 1.82886 26.1516 1.82886H19.6155ZM22.513 4.25464H25.388C27.4768 4.25464 28.656 5.32153 28.656 7.30933C28.656 9.24097 27.4431 10.3191 25.3767 10.3191H22.513V4.25464ZM37.0349 16.0466C35.7995 16.0466 34.9123 15.429 34.9123 14.3958C34.9123 13.3962 35.6423 12.8347 37.2033 12.7336L39.9773 12.554V13.531C39.9773 14.9573 38.7195 16.0466 37.0349 16.0466ZM36.2151 18.2366C37.821 18.2366 39.1687 17.5403 39.8537 16.3499H40.0447V18.0344H42.7287V9.64526C42.7287 7.03979 40.9543 5.50122 37.7986 5.50122C34.8786 5.50122 32.8459 6.88257 32.6213 9.05005H35.2492C35.5075 8.21899 36.3835 7.76978 37.6638 7.76978C39.1687 7.76978 39.9773 8.4436 39.9773 9.64526V10.6785L36.8103 10.8694C33.823 11.0491 32.1496 12.3293 32.1496 14.553C32.1496 16.7991 33.8454 18.2366 36.2151 18.2366ZM45.8293 22.4929C48.5808 22.4929 49.8947 21.4822 50.9392 18.4275L55.3752 5.74829H52.4328L49.569 15.3391H49.3781L46.5031 5.74829H43.4484L47.8395 18.0906L47.6935 18.6296C47.3342 19.7639 46.6716 20.2131 45.4924 20.2131C45.3015 20.2131 44.8859 20.2019 44.7287 20.1682V22.448C44.9084 22.4817 45.6608 22.4929 45.8293 22.4929Z" fill="white"/>
</svg>
