<svg width="62" height="24" viewBox="0 0 62 24" fill="none" xmlns="http://www.w3.org/2000/svg">
<path d="M28.9522 11.6726V18.7486H26.6914V1.2749H32.6849C34.2039 1.2749 35.4992 1.77783 36.5589 2.78368C37.6422 3.78952 38.1839 5.01759 38.1839 6.46788C38.1839 7.95326 37.6422 9.18133 36.5589 10.1755C35.5109 11.1696 34.2157 11.6609 32.6849 11.6609H28.9522V11.6726ZM28.9522 3.42695V9.52051H32.732C33.6269 9.52051 34.3805 9.21642 34.9693 8.61993C35.5698 8.02343 35.876 7.29829 35.876 6.47957C35.876 5.67256 35.5698 4.95911 34.9693 4.36262C34.3805 3.74274 33.6387 3.43864 32.732 3.43864H28.9522V3.42695Z" fill="white"/>
<path d="M44.0954 6.39771C45.7675 6.39771 47.0863 6.84215 48.0519 7.73104C49.0174 8.61992 49.5002 9.8363 49.5002 11.3802V18.7486H47.3454V17.0878H47.2512C46.3209 18.4562 45.0728 19.1345 43.5185 19.1345C42.1879 19.1345 41.081 18.7486 40.1861 17.9649C39.2912 17.1813 38.8438 16.2106 38.8438 15.041C38.8438 13.8012 39.3148 12.8188 40.2568 12.0936C41.1988 11.3568 42.4587 10.9942 44.0248 10.9942C45.3671 10.9942 46.474 11.2398 47.3336 11.731V11.2164C47.3336 10.4328 47.0274 9.77782 46.4034 9.22811C45.7793 8.6784 45.0492 8.4094 44.2132 8.4094C42.9533 8.4094 41.9524 8.93571 41.2223 10L39.2323 8.76027C40.3274 7.18133 41.9524 6.39771 44.0954 6.39771ZM41.1752 15.0761C41.1752 15.6609 41.4225 16.1521 41.9288 16.538C42.4234 16.924 43.0121 17.1228 43.6833 17.1228C44.6371 17.1228 45.4849 16.772 46.2267 16.0702C46.9686 15.3685 47.3454 14.5497 47.3454 13.6024C46.6389 13.0527 45.6615 12.772 44.4016 12.772C43.4831 12.772 42.7178 12.9942 42.1055 13.4269C41.4814 13.8831 41.1752 14.4328 41.1752 15.0761Z" fill="white"/>
<path d="M61.7939 6.78369L54.2578 24.0001H51.9264L54.7288 17.9767L49.7598 6.78369H52.2208L55.8004 15.3685H55.8475L59.3329 6.78369H61.7939Z" fill="white"/>
<path d="M19.9599 10.2456C19.9599 9.51343 19.894 8.81284 19.7715 8.13916H10.2949V11.9988L15.7527 12C15.5313 13.2842 14.8189 14.3789 13.7274 15.1087V17.6128H16.9761C18.8731 15.869 19.9599 13.2912 19.9599 10.2456Z" fill="#4285F4"/>
<path d="M13.7275 15.1088C12.8232 15.7146 11.6586 16.069 10.2962 16.069C7.66452 16.069 5.43196 14.3076 4.63243 11.9333H1.28125V14.5158C2.94154 17.7883 6.35395 20.0339 10.2962 20.0339C13.021 20.0339 15.3101 19.1439 16.9762 17.6117L13.7275 15.1088Z" fill="#34A853"/>
<path d="M4.3173 10.0176C4.3173 9.35093 4.42917 8.70649 4.63288 8.10064V5.51819H1.28169C0.595205 6.8714 0.208984 8.39889 0.208984 10.0176C0.208984 11.6363 0.596382 13.1638 1.28169 14.517L4.63288 11.9346C4.42917 11.3287 4.3173 10.6843 4.3173 10.0176Z" fill="#FABB05"/>
<path d="M10.2962 3.96491C11.7834 3.96491 13.1152 4.47368 14.1667 5.46783L17.0457 2.61052C15.2971 0.992982 13.0175 0 10.2962 0C6.35513 0 2.94154 2.24561 1.28125 5.51812L4.63243 8.10058C5.43196 5.72631 7.66452 3.96491 10.2962 3.96491Z" fill="#E94235"/>
</svg>
