<svg width="14" height="8" viewBox="0 0 14 8" fill="none" xmlns="http://www.w3.org/2000/svg">
<path d="M0.957713 4.63906C0.258172 5.14462 0.126794 6.08786 0.664273 6.74586C1.20175 7.40386 2.20455 7.52743 2.90409 7.02188L7.97062 3.36029C8.67016 2.85473 8.80154 1.91149 8.26406 1.25349C7.72658 0.595491 6.72378 0.471915 6.02424 0.977474L0.957713 4.63906Z" fill="#3A3A3C"/>
<path d="M11.0978 7.01708C11.798 7.52181 12.8007 7.39705 13.3373 6.73841C13.8739 6.07978 13.7412 5.13668 13.041 4.63196L7.96958 0.976389C7.26936 0.47166 6.26672 0.596426 5.73013 1.25506C5.19353 1.91369 5.32618 2.85679 6.02639 3.36152L11.0978 7.01708Z" fill="#3A3A3C"/>
</svg>
