<svg width="20" height="22" viewBox="0 0 20 22" fill="none" xmlns="http://www.w3.org/2000/svg">
<path d="M7.95405 1.2107C9.30298 0.927837 10.6958 0.927156 12.045 1.2087C12.1349 1.80199 12.3574 2.36739 12.6958 2.86288C13.0343 3.35837 13.4801 3.77121 14 4.0707C14.5196 4.37123 15.1002 4.55077 15.6987 4.59595C16.2973 4.64114 16.8983 4.55082 17.457 4.3317C18.3753 5.35976 19.0709 6.56674 19.5 7.8767C19.0314 8.25128 18.6532 8.72665 18.3935 9.2675C18.1338 9.80834 17.9993 10.4007 18 11.0007C18 12.2647 18.586 13.3917 19.502 14.1247C19.0704 15.4336 18.3739 16.6396 17.456 17.6677C16.8974 17.4487 16.2966 17.3585 15.6983 17.4037C15.0999 17.4489 14.5195 17.6283 14 17.9287C13.4805 18.2281 13.0351 18.6407 12.6968 19.1358C12.3585 19.6309 12.1361 20.1959 12.046 20.7887C10.6973 21.0722 9.30439 21.0736 7.95505 20.7927C7.86559 20.1989 7.64335 19.6329 7.30487 19.1368C6.96639 18.6408 6.52038 18.2275 6.00005 17.9277C5.48041 17.6273 4.89975 17.448 4.30124 17.403C3.70272 17.3579 3.10176 17.4484 2.54305 17.6677C1.62465 16.6393 0.929052 15.432 0.500047 14.1217C0.96844 13.7473 1.34651 13.2723 1.60618 12.7318C1.86586 12.1913 2.00048 11.5993 2.00005 10.9997C2.00054 10.3996 1.86575 9.80707 1.60571 9.26622C1.34568 8.72537 0.96707 8.25008 0.498047 7.8757C0.929715 6.56683 1.62616 5.3608 2.54405 4.3327C3.1027 4.55166 3.70352 4.6419 4.30184 4.59671C4.90017 4.55153 5.48062 4.37208 6.00005 4.0717C6.51959 3.7723 6.96503 3.35973 7.30331 2.86461C7.64158 2.36949 7.864 1.80454 7.95405 1.2117V1.2107ZM10 14.0007C10.7957 14.0007 11.5588 13.6846 12.1214 13.122C12.684 12.5594 13 11.7964 13 11.0007C13 10.2051 12.684 9.44199 12.1214 8.87938C11.5588 8.31677 10.7957 8.0007 10 8.0007C9.2044 8.0007 8.44134 8.31677 7.87873 8.87938C7.31612 9.44199 7.00005 10.2051 7.00005 11.0007C7.00005 11.7964 7.31612 12.5594 7.87873 13.122C8.44134 13.6846 9.2044 14.0007 10 14.0007Z" fill="#1749B3"/>
</svg>
