<svg width="12" height="14" viewBox="0 0 12 14" fill="none" xmlns="http://www.w3.org/2000/svg">
<path d="M1.33268 13.6663C1.15587 13.6663 0.986302 13.5961 0.861278 13.4711C0.736254 13.3461 0.666016 13.1765 0.666016 12.9997V0.999674C0.666016 0.822863 0.736254 0.653294 0.861278 0.52827C0.986302 0.403246 1.15587 0.333008 1.33268 0.333008H10.666C10.8428 0.333008 11.0124 0.403246 11.1374 0.52827C11.2624 0.653294 11.3327 0.822863 11.3327 0.999674V12.9997C11.3327 13.1765 11.2624 13.3461 11.1374 13.4711C11.0124 13.5961 10.8428 13.6663 10.666 13.6663H1.33268ZM7.99935 9.66634L11.3327 6.99967L7.99935 4.33301V6.33301H3.99935V7.66634H7.99935V9.66634Z" fill="white"/>
</svg>
