<svg width="12" height="15" viewBox="0 0 12 15" fill="none" xmlns="http://www.w3.org/2000/svg">
<path d="M0.666626 14.667C0.666626 13.2525 1.22853 11.896 2.22872 10.8958C3.22892 9.89556 4.58547 9.33366 5.99996 9.33366C7.41445 9.33366 8.771 9.89556 9.7712 10.8958C10.7714 11.896 11.3333 13.2525 11.3333 14.667H9.99996C9.99996 13.6061 9.57853 12.5887 8.82839 11.8386C8.07824 11.0884 7.06083 10.667 5.99996 10.667C4.93909 10.667 3.92168 11.0884 3.17153 11.8386C2.42139 12.5887 1.99996 13.6061 1.99996 14.667H0.666626ZM5.99996 8.66699C3.78996 8.66699 1.99996 6.87699 1.99996 4.66699C1.99996 2.45699 3.78996 0.666992 5.99996 0.666992C8.20996 0.666992 9.99996 2.45699 9.99996 4.66699C9.99996 6.87699 8.20996 8.66699 5.99996 8.66699ZM5.99996 7.33366C7.47329 7.33366 8.66663 6.14033 8.66663 4.66699C8.66663 3.19366 7.47329 2.00033 5.99996 2.00033C4.52663 2.00033 3.33329 3.19366 3.33329 4.66699C3.33329 6.14033 4.52663 7.33366 5.99996 7.33366Z" fill="#333333"/>
</svg>
